<svg width="512" height="512" viewBox="0 0 512 512" fill="none" xmlns="http://www.w3.org/2000/svg">
<path d="M376.757 473.834C371.888 462.886 358.107 453.92 346.124 453.92H165.878C153.895 453.92 140.115 462.885 135.245 473.834L122.303 502.942H389.698L376.757 473.834Z" fill="#28476F"/>
<path d="M180.061 317.63C180.061 335.681 194.702 350.311 212.742 350.311H299.259C317.299 350.311 331.94 335.681 331.94 317.63H180.061Z" fill="#28476F"/>
<path d="M310.404 453.92H201.598C201.598 431.207 215.531 411.74 235.325 403.602V350.31H276.677V403.602C296.471 411.74 310.404 431.207 310.404 453.92Z" fill="#28476F"/>
<path d="M487.49 284.949H24.5119C15.4919 284.949 8.17187 292.27 8.17187 301.289C8.17187 310.32 15.4929 317.629 24.5119 317.629H487.491C496.511 317.629 503.831 310.319 503.831 301.289C503.831 292.27 496.51 284.949 487.49 284.949Z" fill="#28476F"/>
<path d="M416.496 55.2144H95.5037C71.5377 55.2144 51.9297 74.8234 51.9297 98.7884V131.469C79.3927 131.469 84.6757 150.152 103.609 157.33V202.31C103.609 211.33 110.919 218.65 119.949 218.65C128.969 218.65 136.289 211.329 136.289 202.31V157.33C155.211 150.14 160.495 131.469 187.968 131.469C221.978 131.469 221.978 160.108 255.988 160.108C289.998 160.108 289.998 131.469 324.008 131.469C358.029 131.469 358.029 160.108 392.039 160.108C426.06 160.108 426.06 131.469 460.07 131.469V98.7884C460.07 74.8224 440.462 55.2144 416.496 55.2144Z" fill="#00A1C0"/>
<path d="M392.039 160.108C358.029 160.108 358.029 131.469 324.008 131.469C289.998 131.469 289.998 160.108 255.988 160.108C221.978 160.108 221.978 131.469 187.968 131.469C160.494 131.469 155.211 150.141 136.289 157.33V202.31C136.289 211.33 128.968 218.65 119.949 218.65C110.918 218.65 103.609 211.329 103.609 202.31V157.33C84.6757 150.151 79.3927 131.469 51.9297 131.469V284.949H460.07V131.469C426.06 131.469 426.06 160.108 392.039 160.108Z" fill="#00C2D6"/>
<path d="M399.348 55.1273V55.2143H333.986V55.1273C333.986 37.0873 366.667 22.4463 366.667 22.4463C366.667 22.4463 399.348 37.0873 399.348 55.1273Z" fill="#00C2D6"/>
<path d="M302.962 55.1273V55.2143H209.037V55.1273C209.038 29.2003 256 8.17529 256 8.17529C256 8.17529 302.962 29.2003 302.962 55.1273Z" fill="#00C2D6"/>
<path d="M178.012 55.1273V55.2143H112.65V55.1273C112.65 37.0873 145.331 22.4463 145.331 22.4463C145.331 22.4463 178.012 37.0873 178.012 55.1273Z" fill="#00C2D6"/>
<path d="M368.41 250.83C372.922 250.83 376.58 247.172 376.58 242.66C376.58 238.148 372.922 234.49 368.41 234.49C363.898 234.49 360.24 238.148 360.24 242.66C360.24 247.172 363.898 250.83 368.41 250.83Z" fill="#222223"/>
<path d="M401.092 218.149C405.604 218.149 409.262 214.491 409.262 209.979C409.262 205.467 405.604 201.809 401.092 201.809C396.58 201.809 392.922 205.467 392.922 209.979C392.922 214.491 396.58 218.149 401.092 218.149Z" fill="#222223"/>
<path d="M487.489 276.782H468.244V98.7943C468.244 70.2633 445.031 47.0493 416.499 47.0493H406.093C399.646 28.7683 373.373 16.4992 370.008 14.9922C367.884 14.0412 365.454 14.0412 363.33 14.9922C359.965 16.4992 333.692 28.7683 327.245 47.0493H310.031C302.986 20.9823 264.155 2.87025 259.336 0.71325C257.213 -0.23775 254.782 -0.23775 252.659 0.71325C247.841 2.87025 209.01 20.9823 201.964 47.0493H184.75C178.303 28.7683 152.03 16.4992 148.665 14.9922C146.541 14.0412 144.111 14.0412 141.987 14.9922C138.622 16.4992 112.349 28.7683 105.902 47.0493H95.499C66.968 47.0493 43.754 70.2623 43.754 98.7943V276.783H24.511C10.995 276.782 0 287.778 0 301.293C0 314.808 10.995 325.804 24.511 325.804H172.718C176.513 344.428 193.018 358.485 212.747 358.485H227.152V398.398C208.913 407.849 196.6 425.511 193.966 445.757H165.88C150.686 445.757 133.949 456.633 127.777 470.518L116.996 494.778H100.518C96.006 494.778 92.348 498.435 92.348 502.948C92.348 507.461 96.006 511.118 100.518 511.118H122.259C122.33 511.118 389.668 511.118 389.668 511.118C389.739 511.118 411.48 511.118 411.48 511.118C415.992 511.118 419.65 507.461 419.65 502.948C419.65 498.435 415.992 494.778 411.48 494.778H395.002L384.221 470.518C378.05 456.633 361.313 445.757 346.118 445.757H318.034C315.4 425.511 303.087 407.849 284.848 398.397V358.485H299.253C318.981 358.485 335.486 344.428 339.282 325.804H487.489C501.005 325.804 512 314.808 512 301.293C512 287.778 501.005 276.782 487.489 276.782ZM366.67 31.5203C374.058 35.3223 382.674 41.2113 387.471 47.0493H345.87C350.668 41.2103 359.285 35.3203 366.67 31.5203ZM256.005 17.2202C266.618 22.5312 286.099 34.4263 292.601 47.0493H219.409C225.926 34.4533 245.403 22.5412 256.005 17.2202ZM145.328 31.5203C152.716 35.3223 161.332 41.2113 166.129 47.0493H124.528C129.326 41.2103 137.944 35.3203 145.328 31.5203ZM95.5 63.3893H416.5C436.021 63.3893 451.904 79.2713 451.904 98.7933V123.848C437.129 125.83 428.512 133.043 420.797 139.537C412.569 146.462 406.069 151.933 392.042 151.933C378.015 151.933 371.516 146.463 363.287 139.537C354.246 131.928 343.999 123.303 324.01 123.303C304.024 123.303 293.778 131.927 284.737 139.538C276.51 146.462 270.012 151.933 255.988 151.933C241.962 151.933 235.464 146.463 227.236 139.537C218.196 131.928 207.95 123.303 187.962 123.303C167.975 123.303 157.73 131.927 148.691 139.537C143.859 143.606 139.294 147.449 133.383 149.692C130.21 150.896 128.113 153.936 128.113 157.331V202.305C128.113 206.811 124.448 210.475 119.943 210.475C115.438 210.475 111.773 206.81 111.773 202.305C111.773 187.412 111.773 159.341 111.776 157.463C111.833 154.072 109.765 150.931 106.506 149.694C100.594 147.45 96.029 143.607 91.196 139.539C83.482 133.044 74.868 125.832 60.095 123.849V98.7943C60.096 79.2712 75.979 63.3893 95.5 63.3893ZM60.096 140.394C68.846 142.109 74.239 146.622 80.674 152.038C84.891 155.588 89.548 159.508 95.437 162.593L95.435 202.305C95.435 215.82 106.43 226.816 119.946 226.816C133.462 226.816 144.457 215.82 144.457 202.305V162.593C150.345 159.508 155.002 155.587 159.219 152.038C167.446 145.114 173.944 139.643 187.967 139.643C201.993 139.643 208.491 145.113 216.717 152.039C225.758 159.648 236.004 168.273 255.991 168.273C275.978 168.273 286.223 159.649 295.264 152.038C303.491 145.114 309.989 139.643 324.013 139.643C338.041 139.643 344.54 145.113 352.768 152.039C361.809 159.648 372.056 168.273 392.045 168.273C412.034 168.273 422.281 159.649 431.322 152.039C437.759 146.622 443.154 142.107 451.907 140.393V276.78H60.096V140.394ZM273.571 411.161C288.411 417.267 298.77 430.368 301.506 445.756H256.068C251.556 445.756 247.898 449.413 247.898 453.926C247.898 458.439 251.556 462.096 256.068 462.096H346.121C354.899 462.096 365.726 469.132 369.292 477.153L377.125 494.777H134.877L142.71 477.153C146.275 469.132 157.103 462.096 165.881 462.096H223.387C227.899 462.096 231.557 458.439 231.557 453.926C231.557 449.413 227.899 445.756 223.387 445.756H210.496C213.231 430.369 223.59 417.268 238.431 411.161C241.494 409.902 243.492 406.917 243.492 403.605V358.484H268.511V403.605C268.509 406.917 270.508 409.901 273.571 411.161ZM299.254 342.144H212.746C202.095 342.144 193.013 335.313 189.641 325.804H322.36C318.987 335.313 309.906 342.144 299.254 342.144ZM487.489 309.463H24.511C20.005 309.463 16.341 305.798 16.341 301.293C16.341 296.788 20.006 293.123 24.511 293.123H487.49C491.996 293.123 495.66 296.788 495.66 301.293C495.66 305.798 491.995 309.463 487.489 309.463Z" fill="#333333"/>
</svg>
