<svg width="1362" height="613" viewBox="0 0 1362 613" fill="none" xmlns="http://www.w3.org/2000/svg">
<path d="M222.5 546.5C211.833 514.5 189.8 449.2 187 444L283 410L319 509.5L259 492L222.5 546.5Z" fill="#00C2D6"/>
<path d="M705 378.5L619.5 291.5L716 257L705 378.5Z" fill="#00C2D6"/>
<path d="M806 333C788.833 304.667 754.1 247.2 752.5 244L841 188.5L893.5 282.5L835 275L806 333Z" fill="#00C2D6"/>
<path d="M1088 244L1053 141L1151 104L1182.5 210L1124 188.5L1088 244Z" fill="#00C2D6"/>
<path d="M111 562.5C92.1667 532.833 53.8 472.2 51 467L152 448L111 562.5Z" fill="#006391"/>
<path d="M420.5 457L325.5 389.5L407 337.5L420.5 457Z" fill="#006391"/>
<path d="M492 417.5L479.5 312.5L579 298L592 407.5L538.5 376L492 417.5Z" fill="#006391"/>
<path d="M973.5 259C956.667 234.667 921.1 181 913.5 161L1012.5 146L973.5 259Z" fill="#006391"/>
<path d="M1287.5 154.5C1288.3 156.5 1217.83 108 1182.5 83.5L1271 36C1276.17 74.6667 1286.7 152.5 1287.5 154.5Z" fill="#006391"/>
<path d="M9.5133 469.412C21.0399 469.482 32.5484 469.252 44.0341 468.739L107.03 569.324C108.583 571.803 111.435 573.153 114.337 572.782C114.864 572.715 115.375 572.594 115.864 572.423C118.068 571.652 119.82 569.881 120.54 567.598L156.259 454.299C165.219 452.379 174.149 450.282 183.045 447.998L217.703 547.075C218.648 549.777 221.048 551.705 223.889 552.046C226.731 552.386 229.518 551.081 231.075 548.68L263.46 498.743L319.912 517.605C321.52 518.142 323.225 518.109 324.766 517.57C325.827 517.199 326.81 516.588 327.629 515.757C329.638 513.719 330.313 510.716 329.368 508.015L294.71 408.937C303.091 405.177 311.381 401.251 319.583 397.168L418.139 463.497C420.125 464.834 422.599 465.126 424.802 464.355C425.292 464.184 425.766 463.961 426.221 463.684C428.72 462.166 430.109 459.332 429.778 456.425L424.5 410.107C424.031 405.992 420.314 403.036 416.199 403.505C412.083 403.974 409.127 407.69 409.596 411.807L413.035 441.981L334.824 389.344C358.129 377.004 380.67 363.344 402.369 348.397L406.198 381.999C406.668 386.115 410.384 389.07 414.499 388.601C415.068 388.536 415.614 388.409 416.133 388.228C419.366 387.097 421.506 383.847 421.102 380.3L416.339 338.505C425.64 331.747 434.784 324.753 443.753 317.513C446.975 314.911 447.479 310.19 444.878 306.967C442.275 303.744 437.555 303.238 434.331 305.842C424.834 313.507 415.14 320.897 405.263 328.01C404.376 328.414 403.587 328.982 402.932 329.674C375.769 349.06 347.21 366.353 317.412 381.467C316.909 381.659 316.425 381.9 315.969 382.198C304.871 387.794 293.604 393.092 282.172 398.081C266.645 404.854 250.841 411.057 234.756 416.684C218.671 422.311 202.446 427.311 186.105 431.687C174.034 434.919 161.921 437.799 149.755 440.341C149.212 440.391 148.682 440.504 148.17 440.667C115.45 447.423 82.3409 451.701 49.0185 453.474C48.0712 453.34 47.0972 453.388 46.1478 453.626C33.9909 454.223 21.8076 454.486 9.60484 454.412C5.46079 454.386 2.08492 457.725 2.05904 461.867C2.03316 466.009 5.37085 469.387 9.5133 469.412ZM111.12 547.593L61.1245 467.766C87.4085 465.928 113.551 462.56 139.466 457.681L111.12 547.593ZM280.92 414.946L310.158 498.531L262.704 482.676C259.461 481.592 255.896 482.839 254.035 485.708L226.811 527.687L197.572 444.101C211.711 440.142 225.76 435.722 239.707 430.843C253.653 425.965 267.396 420.663 280.92 414.946Z" fill="#333333"/>
<path d="M864.757 155.279C855.257 162.946 845.561 170.336 835.682 177.452C835.418 177.572 835.157 177.705 834.903 177.859C834.327 178.209 833.821 178.631 833.376 179.097C806.207 198.487 777.644 215.785 747.84 230.902C747.424 231.062 747.015 231.254 746.621 231.494C746.566 231.527 746.518 231.566 746.464 231.601C735.433 237.164 724.235 242.433 712.873 247.396C712.845 247.408 712.818 247.42 712.79 247.432C697.216 254.233 681.341 260.467 665.182 266.12C649.023 271.772 632.723 276.792 616.306 281.183C616.277 281.191 616.247 281.198 616.218 281.206C604.241 284.407 592.201 287.267 580.106 289.793C580.043 289.799 579.982 289.8 579.918 289.807C579.463 289.866 579.026 289.97 578.604 290.102C545.873 296.86 512.752 301.14 479.417 302.913C478.779 302.826 478.121 302.811 477.451 302.897C477.157 302.935 476.871 302.993 476.59 303.063C464.429 303.658 452.239 303.922 440.03 303.848C435.886 303.821 432.51 307.16 432.484 311.303C432.46 315.445 435.797 318.823 439.939 318.848C450.594 318.912 461.234 318.718 471.855 318.285L485.14 422.274C485.503 425.112 487.45 427.497 490.158 428.422C492.868 429.346 495.866 428.649 497.886 426.623L539.947 384.511L591.243 414.698C593.169 415.833 595.47 416.032 597.523 415.314C598.097 415.113 598.654 414.839 599.176 414.496C601.565 412.92 602.849 410.122 602.486 407.284L589.188 303.191C598.133 301.239 607.047 299.106 615.928 296.792L698.572 382.197C700.606 384.299 703.677 385.026 706.438 384.06C709.199 383.094 711.147 380.611 711.428 377.7L722.814 259.402C731.202 255.675 739.502 251.787 747.712 247.738L802.2 337.423C803.686 339.869 806.433 341.257 809.284 340.999C809.907 340.943 810.511 340.81 811.086 340.609C813.139 339.891 814.813 338.3 815.614 336.213L836.908 280.633L896.047 287.346C898.89 287.67 901.669 286.345 903.211 283.935C904.753 281.525 904.788 278.446 903.302 276L848.87 186.405C857.446 180.123 865.887 173.643 874.178 166.951C877.401 164.349 877.905 159.627 875.304 156.404C872.701 153.181 867.981 152.674 864.757 155.279ZM585.668 394.014L542.548 368.638C539.602 366.904 535.855 367.382 533.439 369.801L498.081 405.202L486.878 317.505C516.281 315.652 545.512 311.889 574.455 306.236L585.668 394.014ZM698.052 360.09L632.427 292.272C645.071 288.64 657.645 284.647 670.134 280.279C682.623 275.91 694.944 271.194 707.095 266.153L698.052 360.09ZM882.541 270.717L832.828 265.074C829.431 264.688 826.204 266.649 824.98 269.843L807.079 316.564L761.132 240.936C787.288 227.316 812.49 212.038 836.638 195.159L882.541 270.717Z" fill="#333333"/>
<path d="M1298.01 3.72384C1288.51 11.39 1278.82 18.7792 1268.94 25.8938C1268.06 26.2977 1267.27 26.8644 1266.62 27.554C1239.45 46.9421 1210.89 64.2363 1181.09 79.3507C1180.59 79.5412 1180.11 79.7817 1179.66 80.0778C1168.56 85.6746 1157.29 90.9734 1145.85 95.9616C1130.33 102.735 1114.52 108.938 1098.44 114.565C1082.35 120.192 1066.13 125.192 1049.79 129.568C1037.71 132.801 1025.6 135.68 1013.43 138.223C1012.89 138.273 1012.37 138.386 1011.86 138.549C979.136 145.305 946.025 149.583 912.7 151.357C911.754 151.224 910.78 151.271 909.832 151.51C897.675 152.104 885.491 152.369 873.289 152.295C869.144 152.268 865.769 155.608 865.743 159.749C865.718 163.891 869.056 167.269 873.197 167.294C884.724 167.364 896.233 167.134 907.719 166.621L970.714 267.206C972.267 269.685 975.12 271.035 978.021 270.664C978.549 270.597 979.059 270.476 979.549 270.305C981.752 269.534 983.505 267.763 984.224 265.48L1019.94 152.181C1028.9 150.26 1037.83 148.164 1046.73 145.88L1057.96 177.992C1059.33 181.902 1063.61 183.963 1067.52 182.595C1071.43 181.227 1073.49 176.949 1072.12 173.04L1061.26 141.983C1075.4 138.024 1089.45 133.604 1103.39 128.725C1117.34 123.847 1131.08 118.545 1144.6 112.828L1173.84 196.414L1126.39 180.558C1123.14 179.474 1119.58 180.722 1117.72 183.591L1090.49 225.569L1082.03 201.358C1080.66 197.448 1076.38 195.387 1072.47 196.755C1068.56 198.123 1066.5 202.401 1067.87 206.311L1081.39 244.958C1082.33 247.66 1084.73 249.587 1087.57 249.928C1090.41 250.269 1093.2 248.964 1094.76 246.563L1127.14 196.626L1183.59 215.487C1185.2 216.025 1186.91 215.992 1188.45 215.453C1189.51 215.082 1190.49 214.471 1191.31 213.64C1193.32 211.602 1194 208.599 1193.05 205.897L1158.39 106.817C1166.77 103.057 1175.06 99.1311 1183.27 95.0476L1281.82 161.377C1283.81 162.714 1286.28 163.006 1288.48 162.235C1288.97 162.064 1289.45 161.841 1289.9 161.564C1292.4 160.045 1293.79 157.212 1293.46 154.305L1280.02 36.3852C1289.32 29.6271 1298.47 22.6328 1307.43 15.3935C1310.66 12.7915 1311.16 8.07017 1308.56 4.84723C1305.96 1.62624 1301.24 1.11836 1298.01 3.72384ZM974.802 245.473L924.808 165.647C951.092 163.808 977.234 160.441 1003.15 155.561L974.802 245.473ZM1276.72 139.863L1198.5 87.2253C1221.81 74.886 1244.35 61.2253 1266.05 46.2781L1276.72 139.863Z" fill="#333333"/>
</svg>
