<svg width="310" height="372" viewBox="0 0 310 372" fill="none" xmlns="http://www.w3.org/2000/svg">
<path d="M243.54 264.882L254.136 289.977C260.002 303.872 276.029 310.382 289.93 304.519L304.094 298.545L293.498 273.45C287.632 259.556 271.605 253.045 257.704 258.908L243.54 264.882Z" fill="#00C2D6"/>
<path d="M232.945 239.787L243.54 264.882L257.704 258.908C271.606 253.045 278.12 237.027 272.254 223.133L261.658 198.038L247.495 204.012C233.592 209.875 227.078 225.892 232.945 239.787Z" fill="#00C2D6"/>
<path d="M221.791 293.89L252.16 365.82L270.157 358.23C276.148 355.704 278.954 348.801 276.426 342.814L210.619 186.953C208.092 180.965 201.186 178.161 195.195 180.687L177.198 188.276L207.682 260.477L221.791 293.89Z" fill="#00A1C0"/>
<path d="M195.197 180.687C199.289 178.961 203.808 179.726 207.068 182.293C199.319 186.367 195.846 195.755 199.313 203.965L223.173 260.478L237.28 293.89L265.309 360.275L254.854 364.685L252.162 365.82L221.792 293.89L217.715 284.234L207.686 260.478L177.201 188.277L195.197 180.687Z" fill="#00A1C0"/>
<path d="M113.121 9.82155L99.6967 14.7389C99.403 14.8465 99.0759 14.8022 98.8207 14.622L87.1567 6.35657C86.5141 5.90101 85.6294 6.38054 85.6585 7.16669L86.1892 21.4473C86.2008 21.759 86.0576 22.0576 85.8068 22.2444L74.3376 30.7771C73.7059 31.2472 73.8876 32.2361 74.6451 32.4519L88.3977 36.36C88.6986 36.4458 88.9378 36.6739 89.0374 36.9696L93.6128 50.5084C93.8644 51.2539 94.8625 51.3869 95.3008 50.7344L103.27 38.8696C103.444 38.6102 103.735 38.4533 104.048 38.4489L118.345 38.2833C119.132 38.2745 119.567 37.3671 119.081 36.7473L110.253 25.5059C110.059 25.2596 110 24.9348 110.093 24.6369L114.354 10.9964C114.59 10.2444 113.861 9.55127 113.121 9.82155Z" fill="#00C2D6"/>
<path d="M155.538 86.5133C146.94 86.5133 139.969 79.5464 139.969 70.9524C139.969 62.3584 146.94 55.3916 155.538 55.3916C164.137 55.3916 171.107 62.3584 171.107 70.9524C171.107 79.5464 164.137 86.5133 155.538 86.5133Z" fill="#00C2D6"/>
<path d="M59.4152 104.64C50.8165 104.64 43.8459 97.6734 43.8459 89.0794C43.8459 80.4854 50.8165 73.5186 59.4152 73.5186C68.0138 73.5186 74.9844 80.4854 74.9844 89.0794C74.9844 97.6734 68.0138 104.64 59.4152 104.64Z" fill="#00C2D6"/>
<path d="M78.5063 214.743H6.3028V353.427C6.3028 360.271 11.8538 365.82 18.7025 365.82H174.3C181.147 365.82 186.699 360.272 186.699 353.427V214.743H114.791" fill="#00C2D6"/>
<path d="M27.8777 214.743V353.427C27.8777 360.271 33.4287 365.82 40.2773 365.82H18.7042C11.8562 365.82 6.30448 360.272 6.30448 353.427V214.743H27.8777Z" fill="#00A1C0"/>
<path d="M78.5047 214.742H114.494V365.815H78.5047V214.742Z" fill="#00A1C0"/>
<path d="M6.11295 208.703H178.969L171.377 190.722C170.747 189.229 170.736 187.547 171.346 186.046C171.956 184.544 173.139 183.347 174.632 182.717L203.476 170.552C206.586 169.241 210.173 170.696 211.485 173.806L228.32 213.677C231.906 206.837 237.7 201.495 244.91 198.453L259.073 192.48C262.184 191.169 265.77 192.624 267.083 195.734L277.678 220.829C281.151 229.053 281.211 238.136 277.848 246.405C277.118 248.198 276.24 249.899 275.239 251.51C285.491 253.76 294.541 260.769 298.923 271.146L309.519 296.241C310.149 297.734 310.16 299.416 309.55 300.917C308.94 302.419 307.758 303.616 306.264 304.246L292.101 310.22C287.917 311.985 283.512 312.867 279.104 312.867C275.914 312.867 272.723 312.404 269.614 311.479L286.448 351.35C287.76 354.459 286.302 358.043 283.192 359.355L254.348 371.52C251.278 372.814 247.635 371.335 246.339 368.266L192.624 241.045V353.497C192.624 363.698 184.319 372 174.11 372H18.5127C8.30545 372 -3.05176e-05 363.7 -3.05176e-05 353.497V214.814C-0.000762939 211.438 2.73624 208.703 6.11295 208.703ZM266.413 225.58L258.195 206.114L249.664 209.712C244.444 211.913 240.395 216.013 238.262 221.26C236.13 226.505 236.168 232.266 238.37 237.482L246.589 256.948L255.12 253.35C260.339 251.149 264.388 247.049 266.521 241.802C268.654 236.557 268.616 230.796 266.413 225.58ZM271.115 299.068C276.363 301.201 282.127 301.163 287.346 298.96L295.877 295.362L287.659 275.897C283.112 265.127 270.649 260.063 259.875 264.609L251.344 268.207L256.968 281.528L259.563 287.673C261.764 292.89 265.867 296.936 271.115 299.068ZM255.226 357.884L272.804 350.47L248.296 292.426C248.296 292.425 248.296 292.424 248.296 292.424L244.88 284.333L202.598 184.187L185.021 191.6L255.226 357.884ZM108.193 359.778V249.535C108.193 246.159 110.929 243.424 114.307 243.424C117.684 243.424 120.42 246.159 120.42 249.535V359.779H174.11C177.576 359.779 180.396 356.961 180.396 353.497V220.924H114.602C114.552 220.924 114.504 220.917 114.454 220.917C114.405 220.917 114.356 220.924 114.307 220.924H84.4309V359.779H108.193V359.778ZM12.2267 353.497C12.2267 356.961 15.0465 359.779 18.5127 359.779H72.2028V220.924H12.2267V353.497Z" fill="#222223"/>
<path d="M118.479 44.3268L106.897 44.4612L100.441 54.0729C97.2372 58.8428 89.727 57.8445 87.8842 52.3967L84.1767 41.4293L73.0317 38.2614C70.4263 37.5189 68.505 35.4031 68.0194 32.7403C67.5316 30.0774 68.5798 27.4211 70.7498 25.8096L80.041 18.897L79.6107 7.32431C79.5118 4.62004 80.9301 2.141 83.3131 0.855707C85.6939 -0.429586 88.545 -0.25739 90.7557 1.30763L100.204 8.00365L111.081 4.0199C113.623 3.08844 116.419 3.66824 118.381 5.53478C120.344 7.40205 121.062 10.1688 120.254 12.7517L116.803 23.8021L123.953 32.9088C125.626 35.0369 125.939 37.8764 124.768 40.3169C123.6 42.7567 121.19 44.2941 118.479 44.3268ZM105.511 29.2172C104.072 27.3891 103.627 24.9718 104.321 22.7507L105.463 19.0918L101.874 20.4061C99.6863 21.2126 97.2459 20.8885 95.3471 19.5408L92.2183 17.3233L92.3601 21.1465C92.4487 23.4737 91.3859 25.6926 89.5198 27.0774L86.4441 29.3668L90.1261 30.4131C92.3702 31.0481 94.1527 32.7461 94.8935 34.9461L96.1213 38.5782L98.26 35.3937C99.5584 33.4617 101.723 32.2942 104.042 32.2716L107.877 32.2266L105.511 29.2172Z" fill="#222223"/>
<path d="M100.505 195.47C100.312 195.488 100.119 195.497 99.9282 195.497C96.8096 195.497 94.1446 193.122 93.848 189.956C91.9921 170.14 91.8736 150.042 93.499 130.219C94.9675 112.311 97.8819 94.3704 102.161 76.9009C102.964 73.6234 106.273 71.6166 109.553 72.418C112.832 73.2208 114.84 76.5289 114.038 79.8057C109.912 96.6525 107.1 113.949 105.685 131.217C104.118 150.33 104.232 169.709 106.022 188.817C106.337 192.177 103.867 195.155 100.505 195.47Z" fill="#222223"/>
<path d="M186.43 117.026C175.621 119.88 155.221 127.721 140.038 148.164C128.587 163.58 124.981 179.605 123.972 190.336C123.675 193.501 121.01 195.875 117.892 195.875C117.701 195.875 117.508 195.866 117.313 195.848C113.952 195.532 111.483 192.552 111.798 189.192C112.953 176.912 117.086 158.56 130.219 140.879C147.626 117.445 170.952 108.474 183.308 105.212C186.573 104.346 189.918 106.296 190.78 109.559C191.643 112.821 189.695 116.165 186.43 117.026Z" fill="#222223"/>
<path d="M87.6535 188.294C88.054 191.644 85.6609 194.686 82.3074 195.087C82.061 195.116 81.8168 195.131 81.5747 195.131C78.5229 195.131 75.8841 192.849 75.5119 189.745C74.4025 180.463 70.2567 162.625 54.9557 147.447C37.2899 129.923 15.8789 127.195 7.49274 126.836C4.11893 126.691 1.50114 123.841 1.64654 120.47C1.79193 117.097 4.63362 114.462 8.01615 114.627C17.8235 115.048 42.8701 118.242 63.568 138.774C81.4991 156.558 86.3551 177.433 87.6535 188.294Z" fill="#222223"/>
<path d="M156.127 92.5531C155.945 92.5582 155.766 92.5596 155.585 92.5596C149.995 92.5596 144.707 90.4489 140.645 86.5814C136.452 82.589 134.065 77.2037 133.924 71.418C133.783 65.6317 135.906 60.1359 139.899 55.9458C148.144 47.2946 161.894 46.9568 170.552 55.1997C179.208 63.4396 179.543 77.1826 171.299 85.836C167.306 90.0261 161.917 92.4121 156.127 92.5531ZM162.119 64.0478C160.293 62.3084 157.946 61.4467 155.602 61.4467C153.104 61.4467 150.61 62.4275 148.754 64.3747C145.16 68.147 145.306 74.139 149.079 77.7326C152.854 81.3262 158.85 81.178 162.444 77.4078C166.041 73.6333 165.895 67.6406 162.119 64.0478Z" fill="#222223"/>
<path d="M81.1516 88.4863C81.2926 94.2734 79.1706 99.7684 75.1767 103.959C70.9219 108.423 65.2022 110.673 59.4716 110.673C54.0965 110.673 48.7134 108.693 44.5232 104.705C35.8659 96.4647 35.5315 82.721 43.7766 74.0684C52.021 65.4157 65.7714 65.0808 74.4294 73.3222C78.6225 77.3139 81.0106 82.7 81.1516 88.4863ZM65.996 82.1717C64.1692 80.4324 61.8226 79.5706 59.4789 79.5706C56.9803 79.5706 54.4861 80.5515 52.6309 82.4987C49.0361 86.271 49.183 92.263 52.9573 95.8566C56.731 99.4495 62.7262 99.3034 66.3224 95.5318C69.918 91.758 69.7718 85.7653 65.996 82.1717Z" fill="#222223"/>
</svg>
