<svg width="28" height="32" viewBox="0 0 28 32" fill="none" xmlns="http://www.w3.org/2000/svg">
<path d="M24 15.3594V7H4V15.3594H24ZM19.7031 24.6562C20.1719 25.125 20.7708 25.3594 21.5 25.3594C22.2292 25.3594 22.8281 25.125 23.2969 24.6562C23.7656 24.1354 24 23.5365 24 22.8594C24 22.1823 23.7656 21.6094 23.2969 21.1406C22.8281 20.6198 22.2292 20.3594 21.5 20.3594C20.7708 20.3594 20.1719 20.6198 19.7031 21.1406C19.2344 21.6094 19 22.1823 19 22.8594C19 23.5365 19.2344 24.1354 19.7031 24.6562ZM4.70312 24.6562C5.17188 25.125 5.77083 25.3594 6.5 25.3594C7.22917 25.3594 7.82812 25.125 8.29688 24.6562C8.76562 24.1354 9 23.5365 9 22.8594C9 22.1823 8.76562 21.6094 8.29688 21.1406C7.82812 20.6198 7.22917 20.3594 6.5 20.3594C5.77083 20.3594 5.17188 20.6198 4.70312 21.1406C4.23438 21.6094 4 22.1823 4 22.8594C4 23.5365 4.23438 24.1354 4.70312 24.6562ZM0.640625 23.6406V7C0.640625 4.34375 1.78646 2.57292 4.07812 1.6875C6.36979 0.802083 9.67708 0.359375 14 0.359375C18.3229 0.359375 21.6302 0.802083 23.9219 1.6875C26.2135 2.57292 27.3594 4.34375 27.3594 7V23.6406C27.3594 25.099 26.7865 26.349 25.6406 27.3906V30.3594C25.6406 30.8281 25.4844 31.2188 25.1719 31.5312C24.8594 31.8438 24.4688 32 24 32H22.3594C21.8906 32 21.474 31.8438 21.1094 31.5312C20.7969 31.2188 20.6406 30.8281 20.6406 30.3594V28.6406H7.35938V30.3594C7.35938 30.8281 7.17708 31.2188 6.8125 31.5312C6.5 31.8438 6.10938 32 5.64062 32H4C3.53125 32 3.14062 31.8438 2.82812 31.5312C2.51562 31.2188 2.35938 30.8281 2.35938 30.3594V27.3906C1.21354 26.349 0.640625 25.099 0.640625 23.6406Z" fill="#222223"/>
</svg>
