<svg width="40" height="40" viewBox="0 0 40 40" fill="none" xmlns="http://www.w3.org/2000/svg">
<path d="M20.3329 0C9.4882 0 0.666197 8.822 0.666197 19.6667C0.666197 23.098 1.56353 26.4687 3.26353 29.4333L0.0341968 39.1227C-0.0431365 39.3553 0.0128635 39.6107 0.180197 39.7893C0.30753 39.9253 0.484197 40 0.666197 40C0.722863 40 0.77953 39.9927 0.836197 39.978L11.4135 37.194C14.1615 38.5947 17.2389 39.3333 20.3329 39.3333C31.1769 39.3333 39.9995 30.5113 39.9995 19.6667C39.9995 8.822 31.1769 0 20.3329 0ZM33.7029 12.6967C33.6009 12.752 33.4909 12.7787 33.3829 12.7787C33.1469 12.7787 32.9195 12.6533 32.7975 12.4327C30.4729 8.196 26.0509 5.21867 21.2562 4.662C20.8902 4.62 20.6289 4.28867 20.6709 3.92333C20.7129 3.55867 21.0422 3.29467 21.4095 3.338C26.6262 3.94333 31.4375 7.18267 33.9662 11.792C34.1435 12.1147 34.0249 12.52 33.7029 12.6967Z" fill="#222223"/>
</svg>
