<svg width="44" height="40" viewBox="0 0 44 40" fill="none" xmlns="http://www.w3.org/2000/svg">
<path d="M42.9503 11.9276C42.3223 5.01562 37.4299 0.000827405 31.3073 0.000827405C27.2283 0.000827405 23.4934 2.19588 21.3919 5.71393C19.3093 2.15038 15.7276 -2.05155e-08 11.7139 -2.05155e-08C5.59211 -2.05155e-08 0.698946 5.01479 0.0717868 11.9268C0.0221436 12.2321 -0.181393 13.8389 0.437492 16.4592C1.32941 20.2387 3.38961 23.6765 6.39385 26.3986L21.382 40L36.6274 26.3994C39.6316 23.6765 41.6918 20.2395 42.5837 16.4592C43.2026 13.8397 42.9991 12.2329 42.9503 11.9276ZM13.2372 6.68363C9.58756 6.68363 6.61807 9.65312 6.61807 13.3027C6.61807 13.7603 6.24823 14.1301 5.79068 14.1301C5.33314 14.1301 4.9633 13.7603 4.9633 13.3027C4.9633 8.74051 8.67495 5.02885 13.2372 5.02885C13.6947 5.02885 14.0645 5.3987 14.0645 5.85624C14.0645 6.31379 13.6939 6.68363 13.2372 6.68363Z" fill="#222223"/>
</svg>
