<?xml version="1.0" encoding="utf-8"?>
<svg version="1.1" id="Layer_1"
  xmlns="http://www.w3.org/2000/svg"
  xmlns:xlink="http://www.w3.org/1999/xlink" x="0px" y="0px" viewBox="0 0 560 560" style="enable-background:new 0 0 560 560;" xml:space="preserve">
  <g>
    <path d="M517.8,486.8H37.2c-9.9,0-17.9-8-17.9-17.9c0-9.9,8-17.9,17.9-17.9h480.6c9.9,0,17.9,8,17.9,17.9
		C535.7,478.8,527.7,486.8,517.8,486.8z"/>
    <path d="M537.1,325c-15.3-45.4-50.6-106.1-50.6-106.1c-15.3-28.3-50.3-28.7-50.3-28.7H287.3l28.2-19.6c7.9-5.5,12.5-13.8,12.5-22.7
		c0-9-4.6-17.3-12.5-22.7l-70.1-48.7c-8.1-5.7-19.2-3.7-24.9,4.5c-5.6,8.1-3.6,19.2,4.5,24.9l60.5,42.1l-59.5,42.3
		c0,0-180.5-0.1-181.5,0c-14.6,0.7-24.9,13.2-24.9,27.6v158.1c0,15.4,12.5,27.9,27.9,27.9c0,0,418.2,0.2,438.1,0.2
		c23.1,0,38-15.6,38-15.6C551.2,364.8,537.1,325,537.1,325z M136.9,268.5c0,5.2-4.3,9.5-9.5,9.5h-5.9H56.8c-5.2,0-9.5-4.3-9.5-9.5
		v-32.8c0-5.2,4.3-9.5,9.5-9.5h64.6h5.9c5.2,0,9.5,4.3,9.5,9.5V268.5z M252.1,268.5c0,5.2-4.3,9.5-9.5,9.5H172
		c-5.2,0-9.5-4.3-9.5-9.5v-32.8c0-5.2,4.3-9.5,9.5-9.5h70.5c5.2,0,9.5,4.3,9.5,9.5V268.5z M469,278.1h-86.3c-5.4,0-9.9-4.4-9.9-9.9
		v-32c0-5.4,4.4-9.9,9.9-9.9h63.5c5.4,0,11.6,4.1,13.8,9l14.9,33.7C477.1,274,474.4,278.1,469,278.1z"/>
  </g>
</svg>
